<svg xmlns="http://www.w3.org/2000/svg" width="195" height="36" fill="none"><path fill="#fff" d="M11.676 35.48q-3.408 0-6-1.584t-4.08-4.32q-1.44-2.784-1.44-6.288 0-3.552 1.44-6.336 1.488-2.784 4.032-4.32 2.592-1.584 6.048-1.584 2.208 0 4.128.816 1.92.768 3.216 2.208t1.536 3.264v11.472q-.24 1.824-1.536 3.36t-3.216 2.448q-1.92.864-4.128.864m1.488-7.44q1.392 0 2.4-.576a4.44 4.44 0 0 0 1.584-1.68q.624-1.104.624-2.544 0-1.392-.576-2.448a4.33 4.33 0 0 0-1.632-1.68q-1.008-.624-2.352-.624t-2.4.624A4.7 4.7 0 0 0 9.18 20.84q-.576 1.056-.576 2.4 0 1.392.576 2.496a4.33 4.33 0 0 0 1.632 1.68 4.54 4.54 0 0 0 2.352.624M25.644 35h-8.208v-6.288l1.2-5.76-1.344-5.664V.008h8.352zm16.73.528q-3.936 0-6.96-1.536-3.024-1.584-4.752-4.368t-1.728-6.384q0-3.552 1.68-6.288a11.96 11.96 0 0 1 4.56-4.368q2.928-1.632 6.576-1.632 3.552 0 6.288 1.536 2.784 1.488 4.32 4.176 1.584 2.64 1.584 6.048 0 .72-.096 1.488a9.7 9.7 0 0 1-.288 1.68l-20.688.096V20.6l17.376-.144-3.744 2.352q-.048-1.968-.576-3.216-.528-1.296-1.536-1.968t-2.544-.672q-1.584 0-2.736.768t-1.776 2.16-.624 3.36q0 2.016.672 3.456.672 1.392 1.92 2.112t3.072.72q1.728 0 3.024-.576 1.344-.576 2.4-1.776l4.368 4.368a11 11 0 0 1-4.224 2.976q-2.448 1.008-5.568 1.008m26.338 0q-3.744 0-6.768-1.584-2.976-1.584-4.704-4.368t-1.728-6.288q0-3.552 1.728-6.336 1.776-2.784 4.752-4.368 3.024-1.632 6.816-1.632 2.736 0 4.992.912t4.128 2.736l-5.28 5.28a4.4 4.4 0 0 0-1.68-1.056q-.912-.384-2.16-.384-1.344 0-2.448.624a4.7 4.7 0 0 0-1.728 1.632q-.624 1.056-.624 2.544 0 1.44.624 2.544a5.1 5.1 0 0 0 1.728 1.68 4.9 4.9 0 0 0 2.448.624q1.344 0 2.304-.432t1.68-1.248l5.328 5.28q-1.968 1.92-4.272 2.88-2.256.96-5.136.96m23.39 0q-3.792 0-6.768-1.584-2.928-1.632-4.656-4.416-1.728-2.832-1.728-6.336t1.68-6.24q1.728-2.784 4.704-4.368 2.976-1.632 6.72-1.632t6.672 1.632q2.976 1.584 4.704 4.368 1.728 2.736 1.728 6.24t-1.728 6.336q-1.68 2.784-4.656 4.416-2.928 1.584-6.672 1.584m-.048-7.44q1.392 0 2.4-.576a4.25 4.25 0 0 0 1.632-1.728q.576-1.104.576-2.544t-.624-2.496q-.576-1.104-1.584-1.68-1.008-.624-2.4-.624-1.344 0-2.4.624a4.25 4.25 0 0 0-1.632 1.728q-.576 1.056-.576 2.496 0 1.392.576 2.496a4.25 4.25 0 0 0 1.632 1.728q1.056.576 2.4.576M108.47 35V11.528h8.352V35zm8.352-12.768-3.744-3.168q1.392-3.984 3.696-6t6-2.016q1.68 0 2.88.432a5.2 5.2 0 0 1 2.112 1.344l-4.848 6.48q-.384-.432-1.104-.672-.672-.288-1.536-.288-1.632 0-2.544 1.008-.912.96-.912 2.88M128.301 35l13.2-34.032h8.304L162.861 35h-8.976l-9.84-28.608h3.12L137.085 35zm8.016-5.952v-6.816h18.768v6.816zm36.546-7.824V15.08h6.48q2.112 0 3.216-1.008 1.152-1.056 1.152-2.832 0-1.728-1.152-2.784-1.104-1.104-3.216-1.104h-6.48V.968h7.68q3.456 0 6.048 1.296 2.64 1.296 4.128 3.552t1.488 5.28-1.536 5.328q-1.488 2.256-4.176 3.552-2.688 1.248-6.288 1.248zM166.047 35V.968h8.592V35zm18.432 0-9.888-14.592 7.728-1.872L194.415 35z"/></svg>