<svg width="45" height="45" viewBox="0 0 45 45" fill="none" xmlns="http://www.w3.org/2000/svg">
<path d="M37.9688 31.1372V13.8628C38.9284 13.6169 39.8058 13.1215 40.512 12.4267C41.2183 11.732 41.728 10.8628 41.9897 9.90738C42.2513 8.95192 42.2554 7.94425 42.0017 6.98668C41.7479 6.02911 41.2452 5.15574 40.5448 4.45526C39.8443 3.75478 38.9709 3.25214 38.0133 2.99836C37.0558 2.74459 36.0481 2.74873 35.0926 3.01035C34.1372 3.27197 33.268 3.78177 32.5733 4.48798C31.8786 5.19418 31.3831 6.07164 31.1372 7.03126H13.8628C13.6169 6.07164 13.1215 5.19418 12.4267 4.48798C11.732 3.78177 10.8628 3.27197 9.90738 3.01035C8.95192 2.74873 7.94425 2.74459 6.98668 2.99836C6.02911 3.25214 5.15574 3.75478 4.45526 4.45526C3.75478 5.15574 3.25214 6.02911 2.99836 6.98668C2.74459 7.94425 2.74873 8.95192 3.01035 9.90738C3.27197 10.8628 3.78177 11.732 4.48798 12.4267C5.19418 13.1215 6.07164 13.6169 7.03126 13.8628V31.1372C6.07164 31.3831 5.19418 31.8786 4.48798 32.5733C3.78177 33.268 3.27197 34.1372 3.01035 35.0926C2.74873 36.0481 2.74459 37.0558 2.99836 38.0133C3.25214 38.9709 3.75478 39.8443 4.45526 40.5448C5.15574 41.2452 6.02911 41.7479 6.98668 42.0017C7.94425 42.2554 8.95192 42.2513 9.90738 41.9897C10.8628 41.728 11.732 41.2183 12.4267 40.512C13.1215 39.8058 13.6169 38.9284 13.8628 37.9688H31.1372C31.3831 38.9284 31.8786 39.8058 32.5733 40.512C33.268 41.2183 34.1372 41.728 35.0926 41.9897C36.0481 42.2513 37.0558 42.2554 38.0133 42.0017C38.9709 41.7479 39.8443 41.2452 40.5448 40.5448C41.2452 39.8443 41.7479 38.9709 42.0017 38.0133C42.2554 37.0558 42.2513 36.0481 41.9897 35.0926C41.728 34.1372 41.2183 33.268 40.512 32.5733C39.8058 31.8786 38.9284 31.3831 37.9688 31.1372ZM36.5625 5.62501C37.1188 5.62501 37.6625 5.78996 38.1251 6.099C38.5876 6.40805 38.948 6.8473 39.1609 7.36122C39.3738 7.87513 39.4295 8.44063 39.321 8.9862C39.2124 9.53178 38.9446 10.0329 38.5512 10.4263C38.1579 10.8196 37.6568 11.0875 37.1112 11.196C36.5656 11.3045 36.0001 11.2488 35.4862 11.0359C34.9723 10.8231 34.533 10.4626 34.224 10.0001C33.915 9.53754 33.75 8.99377 33.75 8.43751C33.75 7.69159 34.0463 6.97622 34.5738 6.44877C35.1012 5.92133 35.8166 5.62501 36.5625 5.62501ZM5.62501 8.43751C5.62501 7.88125 5.78996 7.33748 6.099 6.87497C6.40805 6.41246 6.8473 6.05197 7.36122 5.8391C7.87513 5.62623 8.44063 5.57053 8.9862 5.67905C9.53178 5.78757 10.0329 6.05544 10.4263 6.44877C10.8196 6.84211 11.0875 7.34325 11.196 7.88882C11.3045 8.43439 11.2488 8.99989 11.0359 9.51381C10.8231 10.0277 10.4626 10.467 10.0001 10.776C9.53754 11.0851 8.99377 11.25 8.43751 11.25C7.69159 11.25 6.97622 10.9537 6.44877 10.4263C5.92133 9.8988 5.62501 9.18343 5.62501 8.43751ZM8.43751 39.375C7.88125 39.375 7.33748 39.2101 6.87497 38.901C6.41246 38.592 6.05197 38.1527 5.8391 37.6388C5.62623 37.1249 5.57053 36.5594 5.67905 36.0138C5.78757 35.4682 6.05544 34.9671 6.44877 34.5738C6.84211 34.1804 7.34325 33.9126 7.88882 33.8041C8.43439 33.6955 8.99989 33.7512 9.51381 33.9641C10.0277 34.177 10.467 34.5375 10.776 35C11.0851 35.4625 11.25 36.0063 11.25 36.5625C11.25 37.3084 10.9537 38.0238 10.4263 38.5512C9.8988 39.0787 9.18343 39.375 8.43751 39.375ZM31.1372 35.1563H13.8628C13.6101 34.1898 13.1046 33.3081 12.3983 32.6018C11.6919 31.8954 10.8102 31.3899 9.84376 31.1372V13.8628C10.8102 13.6101 11.6919 13.1046 12.3983 12.3983C13.1046 11.6919 13.6101 10.8102 13.8628 9.84376H31.1372C31.3899 10.8102 31.8954 11.6919 32.6018 12.3983C33.3081 13.1046 34.1898 13.6101 35.1563 13.8628V31.1372C34.1892 31.3886 33.3067 31.8936 32.6002 32.6002C31.8936 33.3067 31.3886 34.1892 31.1372 35.1563ZM36.5625 39.375C36.0063 39.375 35.4625 39.2101 35 38.901C34.5375 38.592 34.177 38.1527 33.9641 37.6388C33.7512 37.1249 33.6955 36.5594 33.8041 36.0138C33.9126 35.4682 34.1804 34.9671 34.5738 34.5738C34.9671 34.1804 35.4682 33.9126 36.0138 33.8041C36.5594 33.6955 37.1249 33.7512 37.6388 33.9641C38.1527 34.177 38.592 34.5375 38.901 35C39.2101 35.4625 39.375 36.0063 39.375 36.5625C39.3739 37.3081 39.0772 38.0228 38.55 38.55C38.0228 39.0772 37.3081 39.3739 36.5625 39.375Z" fill="white"/>
</svg>