<svg xmlns="http://www.w3.org/2000/svg" width="412" height="135" fill="none"><g filter="url(#a)"><path fill="#696866" fill-opacity=".8" d="M0 35c0-11.046 8.954-20 20-20h372c11.046 0 20 8.954 20 20v100H0zm135-20c0-8.284 6.716-15 15-15h115c8.284 0 15 6.716 15 15z"/><g clip-path="url(#b)"><path fill="#D7D7D7" d="M185 11.965c0-.255.138-.515.407-.71.537-.391 1.415-.391 1.952 0l18.388 13.366 18.111-13.171c.537-.39 1.416-.39 1.953 0s.537 1.03 0 1.42l-19.088 13.882c-.537.39-1.415.39-1.952 0l-19.364-14.077c-.269-.196-.407-.456-.407-.71"/></g></g><defs><clipPath id="b"><path fill="#fff" d="M185 34V4h41.25v30z"/></clipPath><filter id="a" width="412" height="139" x="0" y="0" color-interpolation-filters="sRGB" filterUnits="userSpaceOnUse"><feFlood flood-opacity="0" result="BackgroundImageFix"/><feBlend in="SourceGraphic" in2="BackgroundImageFix" result="shape"/><feColorMatrix in="SourceAlpha" result="hardAlpha" values="0 0 0 0 0 0 0 0 0 0 0 0 0 0 0 0 0 0 127 0"/><feOffset dy="4"/><feGaussianBlur stdDeviation="2"/><feComposite in2="hardAlpha" k2="-1" k3="1" operator="arithmetic"/><feColorMatrix values="0 0 0 0 0 0 0 0 0 0 0 0 0 0 0 0 0 0 0.25 0"/><feBlend in2="shape" result="effect1_innerShadow_227_331"/></filter></defs></svg>