<svg xmlns="http://www.w3.org/2000/svg" width="78" height="78" fill="none"><g filter="url(#a)"><g filter="url(#b)"><rect width="70" height="70" x="4" fill="#4D4D4D" fill-opacity=".5" rx="15"/></g></g><path stroke="#DCDBDA" stroke-linecap="round" stroke-linejoin="round" stroke-width="2" d="M38.5 28.875h-3.75m3.75-5.625h-5.625M38.5 34.5h-5.625M38.5 45.75h-5.625m5.625-5.625h-3.75m20.625-22.5h-7.5m3.75 0v33.75m3.75 0h-7.5m-9.375-2.11c0 1.165-.96 2.11-2.143 2.11H25.643a2.127 2.127 0 0 1-2.143-2.11V19.5a1.875 1.875 0 0 1 1.875-1.875h10.982c1.183 0 2.143.945 2.143 2.11z"/><defs><filter id="a" width="78" height="78" x="0" y="0" color-interpolation-filters="sRGB" filterUnits="userSpaceOnUse"><feFlood flood-opacity="0" result="BackgroundImageFix"/><feColorMatrix in="SourceAlpha" result="hardAlpha" values="0 0 0 0 0 0 0 0 0 0 0 0 0 0 0 0 0 0 127 0"/><feOffset dy="4"/><feGaussianBlur stdDeviation="2"/><feComposite in2="hardAlpha" operator="out"/><feColorMatrix values="0 0 0 0 0 0 0 0 0 0 0 0 0 0 0 0 0 0 0.25 0"/><feBlend in2="BackgroundImageFix" result="effect1_dropShadow_1062_262"/><feBlend in="SourceGraphic" in2="effect1_dropShadow_1062_262" result="shape"/></filter><filter id="b" width="70" height="74" x="4" y="0" color-interpolation-filters="sRGB" filterUnits="userSpaceOnUse"><feFlood flood-opacity="0" result="BackgroundImageFix"/><feBlend in="SourceGraphic" in2="BackgroundImageFix" result="shape"/><feColorMatrix in="SourceAlpha" result="hardAlpha" values="0 0 0 0 0 0 0 0 0 0 0 0 0 0 0 0 0 0 127 0"/><feOffset dy="4"/><feGaussianBlur stdDeviation="2"/><feComposite in2="hardAlpha" k2="-1" k3="1" operator="arithmetic"/><feColorMatrix values="0 0 0 0 0 0 0 0 0 0 0 0 0 0 0 0 0 0 0.25 0"/><feBlend in2="shape" result="effect1_innerShadow_1062_262"/></filter></defs></svg>