<svg width="55" height="55" viewBox="0 0 55 55" fill="none" xmlns="http://www.w3.org/2000/svg">
<path d="M27.5 21.875H23.75M27.5 16.25H21.875M27.5 27.5H21.875M27.5 38.75H21.875M27.5 33.125H23.75M44.375 10.625H36.875M40.625 10.625V44.375M44.375 44.375H36.875M27.5 42.2656C27.5 43.43 26.54 44.375 25.3569 44.375H14.6431C14.3639 44.3772 14.087 44.3244 13.8281 44.2196C13.5693 44.1148 13.3337 43.9601 13.1347 43.7642C12.9357 43.5683 12.7772 43.3352 12.6683 43.078C12.5594 42.8209 12.5022 42.5449 12.5 42.2656V12.5C12.5 12.0027 12.6975 11.5258 13.0492 11.1742C13.4008 10.8225 13.8777 10.625 14.375 10.625H25.3569C26.54 10.625 27.5 11.57 27.5 12.7344V42.2656Z" stroke="#DCDBDA" stroke-width="2" stroke-linecap="round" stroke-linejoin="round"/>
</svg> 