<svg xmlns="http://www.w3.org/2000/svg" width="70" height="70" fill="none"><rect width="70" height="70" fill="#009971" rx="15"/><path stroke="#DCDBDA" stroke-linecap="round" stroke-linejoin="round" stroke-width="2" d="M34.5 28.875h-3.75m3.75-5.625h-5.625M34.5 34.5h-5.625M34.5 45.75h-5.625m5.625-5.625h-3.75m20.625-22.5h-7.5m3.75 0v33.75m3.75 0h-7.5m-9.375-2.11c0 1.165-.96 2.11-2.143 2.11H21.643a2.127 2.127 0 0 1-2.143-2.11V19.5a1.875 1.875 0 0 1 1.875-1.875h10.982c1.183 0 2.143.945 2.143 2.11z"/></svg>