<svg xmlns="http://www.w3.org/2000/svg" width="264" height="49" fill="none"><path fill="#F2F2F2" d="M15.958 48.65q-4.615 0-8.125-2.145t-5.525-5.85q-1.95-3.77-1.95-8.515 0-4.81 1.95-8.58 2.014-3.77 5.46-5.85 3.51-2.145 8.19-2.145 2.99 0 5.59 1.105 2.6 1.04 4.355 2.99t2.08 4.42v15.535q-.325 2.47-2.08 4.55t-4.355 3.315q-2.6 1.17-5.59 1.17m2.015-10.075q1.884 0 3.25-.78a6 6 0 0 0 2.145-2.275q.845-1.495.845-3.445 0-1.886-.78-3.315a5.87 5.87 0 0 0-2.21-2.275q-1.365-.845-3.185-.845t-3.25.845q-1.365.844-2.21 2.34-.78 1.43-.78 3.25 0 1.885.78 3.38a5.87 5.87 0 0 0 2.21 2.275q1.43.845 3.185.845M34.873 48H23.758v-8.515l1.625-7.8-1.82-7.67V.615h11.31zm22.655.715q-5.33 0-9.425-2.08-4.095-2.145-6.435-5.915t-2.34-8.645q0-4.81 2.275-8.515 2.275-3.77 6.175-5.915 3.964-2.21 8.905-2.21 4.81 0 8.515 2.08 3.77 2.014 5.85 5.655 2.145 3.575 2.145 8.19 0 .975-.13 2.015-.066.975-.39 2.275l-28.015.13V28.5l23.53-.195-5.07 3.185q-.066-2.665-.78-4.355-.715-1.755-2.08-2.665t-3.445-.91q-2.145 0-3.705 1.04t-2.405 2.925-.845 4.55q0 2.73.91 4.68.91 1.885 2.6 2.86t4.16.975q2.34 0 4.095-.78 1.82-.78 3.25-2.405l5.915 5.915q-2.34 2.665-5.72 4.03-3.316 1.365-7.54 1.365m35.666 0q-5.07 0-9.165-2.145-4.03-2.145-6.37-5.915t-2.34-8.515q0-4.81 2.34-8.58 2.404-3.77 6.435-5.915 4.095-2.21 9.23-2.21 3.705 0 6.76 1.235t5.59 3.705l-7.15 7.15a6 6 0 0 0-2.275-1.43q-1.234-.52-2.925-.52-1.82 0-3.315.845a6.35 6.35 0 0 0-2.34 2.21q-.845 1.43-.845 3.445 0 1.95.845 3.445a6.9 6.9 0 0 0 2.34 2.275q1.496.845 3.315.845 1.82 0 3.12-.585a6.65 6.65 0 0 0 2.275-1.69l7.215 7.15q-2.665 2.6-5.785 3.9-3.055 1.3-6.955 1.3m31.673 0q-5.135 0-9.165-2.145-3.965-2.21-6.305-5.98-2.34-3.836-2.34-8.58 0-4.745 2.275-8.45 2.34-3.77 6.37-5.915 4.03-2.21 9.1-2.21t9.035 2.21q4.03 2.145 6.37 5.915 2.34 3.705 2.34 8.45t-2.34 8.58q-2.274 3.77-6.305 5.98-3.965 2.145-9.035 2.145m-.065-10.075q1.885 0 3.25-.78a5.75 5.75 0 0 0 2.21-2.34q.78-1.495.78-3.445t-.845-3.38q-.78-1.495-2.145-2.275-1.365-.845-3.25-.845-1.82 0-3.25.845a5.75 5.75 0 0 0-2.21 2.34q-.78 1.43-.78 3.38 0 1.885.78 3.38a5.75 5.75 0 0 0 2.21 2.34q1.43.78 3.25.78M147.034 48V16.215h11.31V48zm11.31-17.29-5.07-4.29q1.885-5.395 5.005-8.125t8.125-2.73q2.276 0 3.9.585 1.69.585 2.86 1.82l-6.565 8.775q-.52-.585-1.495-.91-.91-.39-2.08-.39-2.21 0-3.445 1.365-1.235 1.3-1.235 3.9M173.887 48l17.875-46.085h11.245L220.687 48h-12.155L195.207 9.26h4.225L185.782 48zm10.855-8.06v-9.23h25.415v9.23zm49.49-10.595v-8.32h8.775q2.86 0 4.355-1.365 1.56-1.43 1.56-3.835 0-2.34-1.56-3.77-1.496-1.495-4.355-1.495h-8.775V1.915h10.4q4.68 0 8.19 1.755 3.574 1.755 5.59 4.81t2.015 7.15-2.08 7.215q-2.016 3.055-5.655 4.81-3.64 1.69-8.515 1.69zM225.002 48V1.915h11.635V48zm24.96 0-13.39-19.76 10.465-2.535L263.417 48z"/></svg>