<svg xmlns="http://www.w3.org/2000/svg" width="44" height="44" fill="none"><path fill="#7D7D7D" d="M36.17 9.246h-4.53l-2.2-3.305a2.13 2.13 0 0 0-1.772-.946H16.332a2.13 2.13 0 0 0-1.772.946l-2.2 3.305H7.83a4.96 4.96 0 0 0-4.96 4.96v19.839a4.96 4.96 0 0 0 4.96 4.96h28.342a4.96 4.96 0 0 0 4.96-4.96V14.206a4.96 4.96 0 0 0-4.96-4.96m.71 24.799a.71.71 0 0 1-.71.709H7.83a.71.71 0 0 1-.71-.709V14.206a.71.71 0 0 1 .71-.708h5.668a2.12 2.12 0 0 0 1.77-.946l2.2-3.306h9.061l2.202 3.306a2.13 2.13 0 0 0 1.771.946h5.669a.71.71 0 0 1 .708.708zM22 14.915a8.503 8.503 0 1 0 8.502 8.502A8.51 8.51 0 0 0 22 14.915m0 12.753a4.251 4.251 0 1 1 0-8.502 4.251 4.251 0 0 1 0 8.502"/></svg>