<svg xmlns="http://www.w3.org/2000/svg" width="40" height="41" fill="none"><path fill="#009971" fill-rule="evenodd" d="M17.674.935h4.652c2.023 0 3.674 0 4.98.201 1.357.208 2.547.662 3.504 1.758.967 1.109 1.376 2.504 1.562 4.098.178 1.51.178 3.415.178 5.718v2.363a4.6 4.6 0 0 1 2.46-.722c3.176 0 5.895 3.481 4.705 7.327l-2.083 6.709-.043.138c-.321 1.035-.54 1.744-.84 2.368-.926 1.919-2.434 3.347-4.199 4.099v3.396c0 .445-.146.872-.408 1.186-.261.315-.616.491-.986.491s-.724-.176-.986-.49a1.86 1.86 0 0 1-.409-1.187v-2.804c-.35.01-.743.01-1.217.01H10.238v2.794c0 .445-.147.872-.408 1.186-.262.315-.616.491-.986.491s-.725-.176-.986-.49a1.86 1.86 0 0 1-.409-1.187v-2.98q0-.208.04-.4c-2.12-.89-3.88-2.753-4.7-5.264l-.074-.242-2.428-7.826c-1.194-3.843 1.525-7.325 4.702-7.325.867 0 1.715.253 2.46.722V12.71c0-2.303 0-4.208.177-5.718.186-1.594.595-2.99 1.562-4.098.96-1.096 2.15-1.55 3.506-1.758C14 .935 15.651.935 17.674.935M7.449 20.339v.161h.056l1.599 4.745.037.11c.149.438.301.894.538 1.29.535.894 1.346 1.484 2.229 1.699.385.096.794.094 1.238.094H26.42c.855.002 1.657.004 2.363-.347a3.6 3.6 0 0 0 1.053-.794c.587-.639.885-1.527 1.171-2.383l.07-.206 1.42-4.208h.055v-.161l.385-1.145a2.2 2.2 0 0 1 2.074-1.489c1.71 0 2.443 1.661 2.09 2.8l-2.083 6.708c-.38 1.23-.517 1.654-.682 1.999-.739 1.531-2.155 2.667-3.866 2.956-.394.067-.852.071-2.042.071H10.287c-2.3-.04-4.212-1.61-4.902-3.723l-.063-.201-2.423-7.81c-.353-1.139.38-2.8 2.09-2.8 1.015 0 1.8.68 2.073 1.49zm22.313-.653v-6.855c0-2.46-.004-4.126-.15-5.374-.14-1.19-.386-1.748-.724-2.135-.35-.403-.865-.698-1.938-.861-1.106-.172-2.577-.174-4.719-.174H17.77c-2.142 0-3.613.002-4.72.174-1.072.163-1.587.46-1.937.86-.338.388-.584.947-.725 2.136-.145 1.248-.149 2.916-.149 5.374v6.853l1.45 4.297c.099.291.155.454.201.58l.052.123a.83.83 0 0 0 .521.373c.074.016.177.025.785.025h12.976c1.185 0 1.372-.032 1.499-.094a.9.9 0 0 0 .243-.181c.004-.003.041-.038.129-.246q.216-.549.397-1.116z" clip-rule="evenodd"/></svg>