<svg xmlns="http://www.w3.org/2000/svg" width="40" height="40" fill="none"><path fill="#7D7D7D" d="M35.538 20.817a1.86 1.86 0 0 1 0-2.454l2.379-2.677a1.86 1.86 0 0 0 .223-2.174L34.422 7.08a1.86 1.86 0 0 0-1.988-.893l-3.495.707a1.86 1.86 0 0 1-2.137-1.227l-1.134-3.402a1.86 1.86 0 0 0-1.766-1.263h-7.435a1.86 1.86 0 0 0-1.858 1.263l-1.041 3.402a1.86 1.86 0 0 1-2.138 1.227l-3.587-.707a1.86 1.86 0 0 0-1.859.893l-3.717 6.43a1.86 1.86 0 0 0 .186 2.175l2.36 2.677a1.86 1.86 0 0 1 0 2.454l-2.36 2.676a1.86 1.86 0 0 0-.186 2.175l3.717 6.43a1.86 1.86 0 0 0 1.989.893l3.494-.706a1.86 1.86 0 0 1 2.138 1.227l1.134 3.401a1.86 1.86 0 0 0 1.858 1.264h7.435a1.86 1.86 0 0 0 1.766-1.264l1.134-3.401a1.86 1.86 0 0 1 2.137-1.227l3.495.706a1.86 1.86 0 0 0 1.989-.892l3.717-6.431a1.86 1.86 0 0 0-.223-2.175zm-2.77 2.49 1.487 1.673-2.379 4.126-2.193-.446a5.576 5.576 0 0 0-6.413 3.718l-.706 2.081h-4.759l-.669-2.118a5.576 5.576 0 0 0-6.412-3.718l-2.193.446-2.417-4.108 1.487-1.672a5.576 5.576 0 0 0 0-7.435L6.114 14.18l2.38-4.09 2.193.447a5.577 5.577 0 0 0 6.412-3.718l.706-2.1h4.759l.706 2.119a5.576 5.576 0 0 0 6.413 3.717l2.193-.446 2.38 4.127-1.488 1.672a5.576 5.576 0 0 0 0 7.398M20.185 12.155a7.435 7.435 0 1 0 0 14.87 7.435 7.435 0 0 0 0-14.87m0 11.152a3.718 3.718 0 1 1 0-7.436 3.718 3.718 0 0 1 0 7.436"/></svg>