<svg width="44" height="44" viewBox="0 0 44 44" fill="none" xmlns="http://www.w3.org/2000/svg">
<path d="M36.6665 7.33341V36.6667H7.33317V7.33341H36.6665ZM36.6665 3.66675H7.33317C5.3165 3.66675 3.6665 5.31675 3.6665 7.33341V36.6667C3.6665 38.6834 5.3165 40.3334 7.33317 40.3334H36.6665C38.6832 40.3334 40.3332 38.6834 40.3332 36.6667V7.33341C40.3332 5.31675 38.6832 3.66675 36.6665 3.66675ZM30.2498 19.5617V16.5001C30.2498 14.4834 28.5998 12.8334 26.5832 12.8334H17.4165C15.3998 12.8334 13.7498 14.4834 13.7498 16.5001V19.5617C12.1365 20.2034 10.9998 21.7617 10.9998 23.5951V31.1667H13.7498V28.4167H30.2498V31.1667H32.9998V23.5951C32.9998 21.7617 31.8632 20.2034 30.2498 19.5617ZM27.4998 15.5834V19.2501H16.4998V15.5834H27.4998ZM13.7498 23.5951C13.7498 22.7151 14.4648 22.0001 15.3448 22.0001H28.6732C29.5532 22.0001 30.2682 22.7151 30.2682 23.5951V25.6667H13.7682V23.5951H13.7498Z" fill="#009971"/>
</svg>
