<svg width="44" height="44" viewBox="0 0 44 44" fill="none" xmlns="http://www.w3.org/2000/svg">
<path d="M36.6666 7.33334V36.6667H7.33329V7.33334H36.6666ZM36.6666 3.66667H7.33329C5.31663 3.66667 3.66663 5.31667 3.66663 7.33334V36.6667C3.66663 38.6833 5.31663 40.3333 7.33329 40.3333H36.6666C38.6833 40.3333 40.3333 38.6833 40.3333 36.6667V7.33334C40.3333 5.31667 38.6833 3.66667 36.6666 3.66667ZM30.25 19.5617V16.5C30.25 14.4833 28.6 12.8333 26.5833 12.8333H17.4166C15.4 12.8333 13.75 14.4833 13.75 16.5V19.5617C12.1366 20.2033 11 21.7617 11 23.595V31.1667H13.75V28.4167H30.25V31.1667H33V23.595C33 21.7617 31.8633 20.2033 30.25 19.5617ZM27.5 15.5833V19.25H16.5V15.5833H27.5ZM13.75 23.595C13.75 22.715 14.465 22 15.345 22H28.6733C29.5533 22 30.2683 22.715 30.2683 23.595V25.6667H13.7683V23.595H13.75Z" fill="#7D7D7D"/>
</svg>
