<svg xmlns="http://www.w3.org/2000/svg" width="44" height="44" fill="none"><path fill="#009971" fill-rule="evenodd" d="M22 7.333A14.666 14.666 0 0 0 9.24 29.236a9.15 9.15 0 0 1 7.26-3.57h11a9.15 9.15 0 0 1 7.26 3.57A14.667 14.667 0 0 0 22 7.333M36.562 33.14q.345-.449.66-.92A18.26 18.26 0 0 0 40.333 22c0-10.125-8.207-18.333-18.333-18.333S3.667 11.875 3.667 22a18.26 18.26 0 0 0 3.77 11.14l-.008.032.65.758a18.3 18.3 0 0 0 15.102 6.367 18.24 18.24 0 0 0 9.223-3.2 18.3 18.3 0 0 0 3.516-3.167l.651-.758zM22 11a5.5 5.5 0 1 0 0 11 5.5 5.5 0 0 0 0-11" clip-rule="evenodd"/></svg>