<svg xmlns="http://www.w3.org/2000/svg" width="42" height="42" fill="none"><path fill="#7E1B75" d="M20.9 33q1.05 0 1.776-.726A2.4 2.4 0 0 0 23.4 30.5a2.43 2.43 0 0 0-.724-1.776q-.722-.728-1.776-.724t-1.774.726T18.4 30.5q-.006 1.051.726 1.776A2.43 2.43 0 0 0 20.9 33m-1.8-7.7h3.7q0-1.65.376-2.6t2.124-2.6q1.3-1.3 2.05-2.476t.75-2.824q0-2.8-2.05-4.3T21.2 9q-2.85 0-4.624 1.5T14.1 14.1l3.3 1.3q.25-.9 1.126-1.95T21.2 12.4q1.6 0 2.4.876t.8 1.924q0 1-.6 1.876T22.3 18.7q-2.2 1.95-2.7 2.95t-.5 3.65M21 41q-4.15 0-7.8-1.574T6.85 35.15 2.576 28.8 1 21t1.576-7.8T6.85 6.85t6.35-4.274T21 1t7.8 1.576 6.35 4.274 4.276 6.35T41 21t-1.576 7.8-4.274 6.35-6.35 4.276T21 41m0-4q6.7 0 11.35-4.65T37 21 32.35 9.65 21 5 9.65 9.65 5 21t4.65 11.35T21 37"/></svg>