<svg xmlns="http://www.w3.org/2000/svg" width="40" height="40" fill="none"><path fill="#7E1B75" d="M20 0c10.684 0 20 8.82 20 19 0 10.008-9.106 17.884-20 17.884a22 22 0 0 1-6.86-1.092c-.928.9-1.246 1.206-3.216 3.106-1.42 1.072-2.756 1.436-3.95.76-1.204-.68-1.566-2.004-1.32-3.748l.8-4.638C1.98 28.004 0 23.684 0 19 0 8.82 9.314 0 20 0m0 2.8C10.828 2.8 2.8 10.4 2.8 19c0 4.09 1.824 7.856 5.04 10.66l.04.034.594.516-.134.78-.276 1.608-.074.428-.57 3.316a6 6 0 0 0-.06.674v.19q0 .015-.004.016c.014-.02.286-.106.752-.446l4.34-4.212.828.312A19.2 19.2 0 0 0 20 34.086c9.432 0 17.2-6.72 17.2-15.086 0-8.598-8.028-16.2-17.2-16.2m-9.546 12.826a3 3 0 1 1 .219 5.997 3 3 0 0 1-.219-5.997m9.996 0a3 3 0 1 1 .219 5.997 3 3 0 0 1-.219-5.997m9.994 0a3 3 0 1 1 .219 5.997 3 3 0 0 1-.219-5.997"/></svg>