<svg xmlns="http://www.w3.org/2000/svg" width="40" height="40" fill="none"><path fill="#7E1B75" d="M10 36.667a3.2 3.2 0 0 1-2.354-.979 3.22 3.22 0 0 1-.98-2.355V16.667q0-1.376.98-2.354a3.22 3.22 0 0 1 2.354-.98h1.666V10q0-3.458 2.439-5.895T20 1.667t5.897 2.438T28.333 10v3.333H30q1.374 0 2.355.98t.978 2.354v16.666q0 1.375-.978 2.355a3.2 3.2 0 0 1-2.355.979zm0-3.334h20V16.667H10zm10-5q1.374 0 2.355-.978T23.333 25a3.2 3.2 0 0 0-.978-2.353 3.22 3.22 0 0 0-2.355-.98 3.18 3.18 0 0 0-2.354.98q-.974.983-.98 2.353-.004 1.37.98 2.355.986.986 2.354.978m-5-15h10V10q0-2.084-1.459-3.542Q22.084 5 20 5t-3.542 1.458T15 10z"/></svg>