<svg xmlns="http://www.w3.org/2000/svg" width="32" height="30" fill="none"><g clip-path="url(#a)"><path stroke="#1E1E1E" stroke-linecap="round" stroke-linejoin="round" stroke-width="3" d="M22.667 26.25v-2.5c0-1.326-.562-2.598-1.562-3.535s-2.357-1.465-3.772-1.465H6.667c-1.415 0-2.771.527-3.772 1.465-1 .937-1.562 2.209-1.562 3.535v2.5m29.334 0v-2.5a4.8 4.8 0 0 0-1.119-3.06 5.37 5.37 0 0 0-2.881-1.777m-5.334-15c1.148.275 2.164.9 2.89 1.777a4.8 4.8 0 0 1 1.12 3.066c0 1.11-.393 2.19-1.12 3.066a5.37 5.37 0 0 1-2.89 1.778m-4-4.85c0 2.761-2.388 5-5.333 5s-5.333-2.239-5.333-5 2.387-5 5.333-5c2.945 0 5.333 2.239 5.333 5"/></g><defs><clipPath id="a"><path fill="#fff" d="M0 0h32v30H0z"/></clipPath></defs></svg>