<svg xmlns="http://www.w3.org/2000/svg" width="37" height="37" fill="none"><path fill="#009971" d="M29.292 3.083H7.708a4.625 4.625 0 0 0-4.625 4.625v1.804c0 .637.131 1.267.386 1.85v.093c.217.495.526.944.91 1.326l9.496 9.434v10.16a1.54 1.54 0 0 0 .725 1.31 1.54 1.54 0 0 0 1.51.062l6.167-3.083a1.54 1.54 0 0 0 .848-1.372v-7.077l9.435-9.434a4.3 4.3 0 0 0 .91-1.326v-.093a4.6 4.6 0 0 0 .447-1.85V7.708a4.625 4.625 0 0 0-4.625-4.625M20.489 20.49a1.54 1.54 0 0 0-.447 1.094v6.753l-3.084 1.542v-8.295a1.54 1.54 0 0 0-.447-1.094l-8.17-8.156H28.66zM30.833 9.25H6.167V7.708a1.54 1.54 0 0 1 1.541-1.541h21.584a1.54 1.54 0 0 1 1.541 1.541z"/></svg>