<svg xmlns="http://www.w3.org/2000/svg" width="25" height="24" fill="none"><path fill="#00664B" d="M18.423 1.492c-.641 0-1.302.214-1.803.716-.504.504-.809 1.259-.809 2.268v.026a2.61 2.61 0 0 0-2.238 2.586v2.238a.373.373 0 0 0 .373.373h4.477a.373.373 0 0 0 .373-.373V7.088a2.61 2.61 0 0 0-2.239-2.586v-.026c0-.855.256-1.405.59-1.741.338-.338.798-.497 1.276-.497.477 0 .937.159 1.275.497.335.336.59.886.59 1.741v16.08c-.652.14-1.115.646-1.306 1.303 0 0-.186.523.187.523h2.984c.373 0 .186-.523.186-.523-.19-.656-.653-1.163-1.305-1.304V4.476c0-1.01-.305-1.764-.809-2.268-.501-.502-1.16-.716-1.803-.716"/><path fill="#00664B" d="M2.382 13.429a1.49 1.49 0 0 1 1.492-1.492H9.47c.271 0 .527.072.746.2.227-.131.484-.2.746-.2h5.595a1.49 1.49 0 0 1 1.492 1.492v1.617c.441.21.747.66.747 1.18v4.664a.746.746 0 0 1-.747.746v.56a.186.186 0 0 1-.186.186h-1.12a.187.187 0 0 1-.186-.187v-.56H3.874v.56a.187.187 0 0 1-.186.187h-1.12a.186.186 0 0 1-.186-.187v-.56a.746.746 0 0 1-.746-.745v-4.663c0-.521.305-.97.746-1.18zm14.175 0H10.59v3.73h5.595v-.932c0-.356.142-.68.373-.914zm-12.31 5.222v1.492h11.937v-1.492zm0-1.492h5.596v-3.73H3.874v1.884a1.3 1.3 0 0 1 .373.914z"/></svg>