<svg xmlns="http://www.w3.org/2000/svg" width="23" height="22" fill="none"><g fill="#00664B" clip-path="url(#a)"><path d="M11.342 21.502C5.421 21.502.604 16.685.604 10.764.604 4.842 5.42.025 11.342.025s10.739 4.817 10.739 10.739c0 5.921-4.817 10.738-10.739 10.738m0-19.943c-5.077 0-9.204 4.127-9.204 9.205s4.127 9.204 9.204 9.204 9.205-4.126 9.205-9.204-4.127-9.205-9.205-9.205"/><path d="M11.342 17.207a6.443 6.443 0 1 0 0-12.886 6.443 6.443 0 0 0 0 12.886"/></g><defs><clipPath id="a"><path fill="#fff" d="M.604.025H22.08v21.477H.604z"/></clipPath></defs></svg>