<svg xmlns="http://www.w3.org/2000/svg" width="25" height="25" fill="none"><mask id="a" width="23" height="18" x="1" y="3" maskUnits="userSpaceOnUse" style="mask-type:luminance"><path stroke="#fff" stroke-linecap="round" stroke-linejoin="round" stroke-width="2" d="M6.61 7.745V6.253a1.492 1.492 0 0 0-2.984 0v3.482"/><path fill="#fff" d="M2.134 13.714a5.969 5.969 0 0 1 11.937 0v5.968H2.134zm11.937 0h7.958v5.968H14.07z"/><path stroke="#fff" stroke-linejoin="round" stroke-width="2" d="M14.07 13.714a5.969 5.969 0 0 0-11.936 0v5.968H14.07m0-5.968v5.968m0-5.968h7.958v5.968H14.07"/><path fill="#000" stroke="#000" stroke-width="2" d="M8.102 15.703a1.99 1.99 0 1 0 0-3.979 1.99 1.99 0 0 0 0 3.98Z"/><path stroke="#000" stroke-linecap="round" stroke-linejoin="round" stroke-width="2" d="M19.542 13.714v1.99m-2.985-1.99v1.99"/><path stroke="#fff" stroke-linecap="round" stroke-linejoin="round" stroke-width="2" d="M15.065 13.714h5.969"/></mask><g mask="url(#a)"><path fill="#00664B" d="M.144.285h23.874v23.874H.144z"/></g></svg>